<?xml version="1.0" encoding="utf-8"?>
<!-- Generator: Adobe Illustrator 21.0.0, SVG Export Plug-In . SVG Version: 6.00 Build 0)  -->
<svg version="1.1" id="Layer_1" xmlns="http://www.w3.org/2000/svg" xmlns:xlink="http://www.w3.org/1999/xlink" x="0px" y="0px"
	 viewBox="0 0 512 512" style="enable-background:new 0 0 512 512;" xml:space="preserve">
<g>
	<path d="M194.9,53.7l-14.3,1.7c0,0-64.1,7-110.9,44.6h-0.6l-0.6,0.6c-10.5,9.6-15.1,21.5-22.3,38.9s-14.9,39.5-21.7,64
		C11,252.5,0,311.9,0,366.3v4.6l2.3,4.6c16.9,29.7,47,48.6,74.9,61.7c27.9,13.1,51.9,20,68.6,20.6l10.9,0.6l5.7-9.7l20-35.4
		c21.2,4.8,45.6,8,73.7,8s52.5-3.2,73.7-8l20,35.4l5.7,9.7l10.9-0.6c16.6-0.6,40.7-7.5,68.6-20.6c27.9-13.1,57.9-32,74.9-61.7
		l2.3-4.6v-4.6c0-54.4-11-113.8-24.6-162.9c-6.8-24.5-14.5-46.6-21.7-64c-7.2-17.4-11.8-29.2-22.3-38.9l-0.6-0.6h-0.6
		c-46.8-37.6-110.9-44.6-110.9-44.6l-14.3-1.7L312,66.9c0,0-5.3,13.4-8.6,28.6C282.7,92.6,265.8,92,256,92c-9.8,0-26.7,0.6-47.4,3.4
		c-3.3-15.2-8.6-28.6-8.6-28.6L194.9,53.7z M169.7,95.4c0.8,2.6,1.6,4.8,2.3,6.9c-23.6,5.9-48.9,14.8-72,29.1l19.4,30.9
		c47.4-29.4,115.6-33.7,136.6-33.7s89.1,4.3,136.6,33.7l19.4-30.9c-23.1-14.4-48.4-23.3-72-29.1c0.7-2.1,1.5-4.3,2.3-6.9
		c17.1,3.4,49.6,11.3,76.6,32.6c-0.1,0.1,6.9,10.6,13.1,25.7c6.4,15.5,13.6,36.1,20,59.4c12.4,44.6,22.1,99,22.9,146.9
		c-11.5,17.6-32.9,33.4-55.4,44c-19.7,9.2-35.3,12.6-44.6,14.3l-9.1-15.4c5.4-2,10.8-4.2,15.4-6.3c28.1-12.4,43.4-25.7,43.4-25.7
		l-24-27.4c0,0-10.3,9.4-34.3,20c-24,10.6-60.6,21.1-110.3,21.1s-86.3-10.6-110.3-21.1c-24-10.6-34.3-20-34.3-20l-24,27.4
		c0,0,15.3,13.4,43.4,25.7c4.6,2.1,10,4.3,15.4,6.3l-9.1,15.4c-9.3-1.7-24.9-5.1-44.6-14.3c-22.6-10.6-43.9-26.4-55.4-44
		c0.8-47.9,10.5-102.2,22.9-146.9c6.4-23.3,13.6-43.9,20-59.4c6.3-15.1,13.3-25.6,13.1-25.7C120.1,106.7,152.6,98.9,169.7,95.4z
		 M192,220c-14.1,0-26.6,8.1-34.3,18.3c-7.6,10.2-11.4,22.8-11.4,36.6s3.8,26.4,11.4,36.6c7.6,10.2,20.1,18.3,34.3,18.3
		s26.6-8.1,34.3-18.3c7.6-10.2,11.4-22.8,11.4-36.6s-3.8-26.4-11.4-36.6C218.6,228.1,206.1,220,192,220z M320,220
		c-14.1,0-26.6,8.1-34.3,18.3c-7.6,10.2-11.4,22.8-11.4,36.6s3.8,26.4,11.4,36.6c7.6,10.2,20.1,18.3,34.3,18.3s26.6-8.1,34.3-18.3
		c7.6-10.2,11.4-22.8,11.4-36.6s-3.8-26.4-11.4-36.6C346.6,228.1,334.1,220,320,220z M192,256.6c1,0,2.3,0.4,4.6,3.4
		c2.3,3.1,4.6,8.4,4.6,14.9c0,6.4-2.3,11.8-4.6,14.9c-2.3,3.1-3.6,3.4-4.6,3.4s-2.3-0.4-4.6-3.4c-2.3-3.1-4.6-8.4-4.6-14.9
		c0-6.4,2.3-11.8,4.6-14.9C189.7,256.9,191,256.6,192,256.6z M320,256.6c1,0,2.3,0.4,4.6,3.4c2.3,3.1,4.6,8.4,4.6,14.9
		c0,6.4-2.3,11.8-4.6,14.9c-2.3,3.1-3.6,3.4-4.6,3.4s-2.3-0.4-4.6-3.4c-2.3-3.1-4.6-8.4-4.6-14.9c0-6.4,2.3-11.8,4.6-14.9
		C317.7,256.9,319,256.6,320,256.6z"/>
</g>
</svg>
